<?xml version="1.0" encoding="UTF-8" standalone="no"?>
<svg
   xmlns:dc="http://purl.org/dc/elements/1.1/"
   xmlns:cc="http://creativecommons.org/ns#"
   xmlns:rdf="http://www.w3.org/1999/02/22-rdf-syntax-ns#"
   xmlns:svg="http://www.w3.org/2000/svg"
   xmlns="http://www.w3.org/2000/svg"
   xmlns:sodipodi="http://sodipodi.sourceforge.net/DTD/sodipodi-0.dtd"
   xmlns:inkscape="http://www.inkscape.org/namespaces/inkscape"
   viewBox="0 0 36 36"
   version="1.1"
   id="svg24"
   sodipodi:docname="icon_v01.svg"
   inkscape:version="0.92.4 5da689c313, 2019-01-14"
   inkscape:export-filename="/home/joachim/research/su-20q1-coronawarner/code/mediapipe/frontend/icon/icon_v01.png"
   inkscape:export-xdpi="960"
   inkscape:export-ydpi="960">
  <metadata
     id="metadata30">
    <rdf:RDF>
      <cc:Work
         rdf:about="">
        <dc:format>image/svg+xml</dc:format>
        <dc:type
           rdf:resource="http://purl.org/dc/dcmitype/StillImage" />
        <dc:title></dc:title>
      </cc:Work>
    </rdf:RDF>
  </metadata>
  <defs
     id="defs28" />
  <sodipodi:namedview
     pagecolor="#ffffff"
     bordercolor="#666666"
     borderopacity="1"
     objecttolerance="10"
     gridtolerance="10"
     guidetolerance="10"
     inkscape:pageopacity="0"
     inkscape:pageshadow="2"
     inkscape:window-width="1277"
     inkscape:window-height="2111"
     id="namedview26"
     showgrid="false"
     inkscape:zoom="6.5555556"
     inkscape:cx="23.038585"
     inkscape:cy="-1.9951353"
     inkscape:window-x="8321"
     inkscape:window-y="23"
     inkscape:window-maximized="1"
     inkscape:current-layer="svg24" />
  <g
     id="g853"
     transform="matrix(0.91101695,0,0,0.91101695,1.6016949,0)">
    <circle
       id="circle16"
       r="18"
       cy="18"
       cx="18"
       style="fill:#ffcc4d" />
    <path
       id="path18"
       d="M 10.515,23.621 C 10.56,23.8 11.683,28 18,28 c 6.318,0 7.44,-4.2 7.485,-4.379 0.055,-0.217 -0.043,-0.442 -0.237,-0.554 -0.195,-0.111 -0.439,-0.078 -0.6,0.077 C 24.629,23.163 22.694,25 18,25 13.306,25 11.37,23.163 11.352,23.145 11.256,23.05 11.128,23 11,23 c -0.084,0 -0.169,0.021 -0.246,0.064 -0.196,0.112 -0.294,0.339 -0.239,0.557 z"
       inkscape:connector-curvature="0"
       style="fill:#664500" />
    <ellipse
       id="ellipse20"
       ry="3.5"
       rx="2.5"
       cy="13.5"
       cx="12"
       style="fill:#664500" />
    <ellipse
       id="ellipse22"
       ry="3.5"
       rx="2.5"
       cy="13.5"
       cx="24"
       style="fill:#664500" />
    <path
       id="path6"
       d="m 27,22.120025 9,-4.091 c 0,-0.66 -0.041,-1.309 -0.109,-1.95 l -8.891,4.041 v -1.091 c 0,-1.104 -0.896,-2 -2,-2 H 11 c -1.1039999,0 -2.0000001,0.896 -2.0000001,2 v 1.091 l -8.88999994,-4.041 c -0.069,0.641 -0.109999997499999,1.29 -0.109999997499999,1.95 l 8.9999999375,4.091 v 4.546 l -7.453,-1.355 c 0.341,0.77 0.741,1.507 1.183,2.215 l 6.27,1.14 v 1.363 c 0,1.104 0.8960002,2 2.0000001,2 h 14 c 1.104,0 2,-0.896 2,-2 v -1.363 l 6.271,-1.141 c 0.441,-0.708 0.841,-1.445 1.182,-2.215 l -7.453,1.356 z"
       style="opacity:0.7;fill:#f5f8fa"
       inkscape:connector-curvature="0" />
  </g>
  <path
     d="m 17.013483,28.459389 c 0,0 0.871305,-0.630102 0.144198,-1.410517 -0.727107,-0.780417 -1.416635,0.04544 -1.416635,0.04544 l -3.624176,3.378601 c -0.0603,-0.179155 -0.401132,-0.649328 -0.48066,-0.827609 l 5.02945,-4.689492 c 0,0 0.872179,-0.630101 0.143324,-1.411392 -0.727107,-0.779543 -1.417509,0.04457 -1.417509,0.04457 l -4.730567,4.409834 c -0.109241,-0.13808 -0.40288,-0.471919 -0.519113,-0.61 l 5.484766,-5.112474 c 0,0 0.871305,-0.630975 0.143324,-1.410518 -0.727107,-0.780417 -1.416636,0.04457 -1.416636,0.04457 l -5.4865131,5.110726 c -0.131089,-0.126719 -0.534844,-0.532221 -0.66768,-0.651949 l 5.1264551,-4.778634 c 0,0 0.870432,-0.630975 0.143324,-1.410518 -0.727981,-0.780417 -1.416635,0.04457 -1.416635,0.04457 L 6.6312309,24.27677 6.1968888,24.682272 6.002877,24.863175 c 0,0 -0.4701728,0.650202 -0.9499587,0.156433 l 1.6097736,-3.633789 c 0,0 0.506878,-0.938598 -0.4308461,-1.446349 -0.9394715,-0.507752 -1.4463491,0.430846 -1.4463491,0.430846 l -1.4577103,2.41029 c -0.5794136,0.955203 -1.1789277,1.903414 -1.8868086,2.767728 -1.99604924,2.440877 -1.93225264,6.04233 0.2779088,8.415042 2.4111648,2.58595 6.4635643,2.7284 9.0495144,0.318109 l 0.390645,-0.365301 z"
     id="path36"
     inkscape:connector-curvature="0"
     style="fill:#cc0000;stroke-width:0.873927" />
</svg>
